<?xml version="1.0" encoding="UTF-8" standalone="no"?>
<svg
   width="400"
   height="400"
   version="1.1"
   viewBox="0 0 299.99999 299.99999"
   id="svg4"
   sodipodi:docname="logo.svg"
   inkscape:version="1.1 (c68e22c387, 2021-05-23)"
   inkscape:export-filename="D:\data\Dropbox\Photos\unlst\english.thienky.com\favicon-300.png"
   inkscape:export-xdpi="72"
   inkscape:export-ydpi="72"
   xmlns:inkscape="http://www.inkscape.org/namespaces/inkscape"
   xmlns:sodipodi="http://sodipodi.sourceforge.net/DTD/sodipodi-0.dtd"
   xmlns="http://www.w3.org/2000/svg"
   xmlns:svg="http://www.w3.org/2000/svg">
  <defs
     id="defs8" />
  <sodipodi:namedview
     id="namedview6"
     pagecolor="#505050"
     bordercolor="#eeeeee"
     borderopacity="1"
     inkscape:pageshadow="0"
     inkscape:pageopacity="0"
     inkscape:pagecheckerboard="0"
     inkscape:document-units="px"
     showgrid="false"
     units="px"
     inkscape:zoom="0.77692819"
     inkscape:cx="221.38468"
     inkscape:cy="201.43432"
     inkscape:window-width="1405"
     inkscape:window-height="967"
     inkscape:window-x="286"
     inkscape:window-y="286"
     inkscape:window-maximized="0"
     inkscape:current-layer="svg4" />
  <path
     d="m 273.96102,188.8755 c 0,12.00801 -9.77327,21.78127 -21.78127,21.78127 h -67.10071 c -1.70105,0 -3.35646,0.59196 -4.67373,1.65549 l -49.46253,40.41447 v -34.67689 c 0,-4.09482 -3.31098,-7.39272 -7.39274,-7.39272 H 90.443485 c -12.008026,0 -21.781299,-9.77327 -21.781299,-21.78129 v -88.42406 c 0,-12.021337 9.773273,-21.781291 21.781299,-21.781291 H 252.17957 c 12.00802,0 21.7813,9.760785 21.7813,21.781291 z M 47.813594,171.07161 c -12.008016,0 -21.781291,-9.75745 -21.781291,-21.77795 V 60.852946 c 0,-12.021337 9.773275,-21.781288 21.781291,-21.781288 H 197.51003 c 12.02133,0 21.78129,9.760785 21.78129,21.781288 V 63.88418 H 90.443651 c -20.155195,0 -36.566932,16.398419 -36.566932,36.56692 v 70.61935 z M 252.17975,63.888676 h -18.09947 v -3.031234 c 0,-20.155185 -16.39841,-36.566924 -36.56692,-36.566924 H 47.816924 C 27.661739,24.290518 11.25,40.702257 11.25,60.857442 v 88.440708 c 0,20.16851 16.411739,36.56692 36.566924,36.56692 h 6.062459 v 3.01499 c 0,20.15519 16.411737,36.57028 36.566932,36.57028 h 25.713745 v 42.86315 c 0,2.85565 1.64251,5.45758 4.22812,6.68369 1.00498,0.47485 2.08478,0.71229 3.16462,0.71229 1.67174,0 3.32721,-0.56267 4.68672,-1.65875 l 59.47392,-48.60075 h 64.46964 c 20.1685,0 36.56691,-16.41506 36.56691,-36.57026 v -88.42405 c 0,-20.168511 -16.39841,-36.56693 -36.56691,-36.56693 z"
     fill="#191919"
     fill-rule="evenodd"
     id="path2"
     style="display:inline;stroke-width:0.832619;fill:#222b00" />
  <path
     style="display:inline;opacity:1;fill:#88aa00;stroke:none;stroke-width:5;stroke-linecap:round"
     d="m 120.5918,104.89453 c -16.0107,0 -29.042972,13.01257 -29.042972,29.04102 v 117.89843 c 0,16.0107 13.032272,29.04297 29.042972,29.04297 h 44.14062 c 5.44235,0 9.85742,4.39571 9.85742,9.85547 v 46.23633 l 65.95118,-53.88477 c 1.75636,-1.41804 3.9624,-2.20898 6.23046,-2.20898 h 89.46875 c 16.01067,0 29.04102,-13.03034 29.04102,-29.04102 V 133.93555 c 0,-16.02734 -13.03032,-29.04102 -29.04102,-29.04102 z"
     transform="scale(0.74999998)"
     id="path68" />
  <path
     style="display:inline;opacity:0.971831;fill:#668000;stroke:none;stroke-width:5;stroke-linecap:round"
     d="m 63.751953,52.095703 c -16.010688,0 -29.042969,13.012566 -29.042969,29.041016 V 199.05859 c 0,16.02734 13.032281,29.03711 29.042969,29.03711 l 8.083985,-0.002 v -94.1582 c 0,-26.89134 21.882265,-48.755862 48.755862,-48.755862 h 171.79687 v -4.042969 c 0,-16.027338 -13.01257,-29.041016 -29.04101,-29.041016 z"
     transform="scale(0.74999998)"
     id="path66" />
</svg>
