<svg xmlns="http://www.w3.org/2000/svg" viewBox="0 0 300 300">
  <path fill="#222b00" fill-rule="evenodd" d="M273.96 188.88c0 12-9.77 21.78-21.78 21.78h-67.1c-1.7 0-3.36.59-4.67 1.65l-49.47 40.42v-34.68c0-4.1-3.3-7.4-7.39-7.4h-33.1a21.8 21.8 0 0 1-21.79-21.77v-88.43a21.8 21.8 0 0 1 21.78-21.78h161.74c12 0 21.78 9.76 21.78 21.78zm-226.15-17.8a21.8 21.8 0 0 1-21.78-21.79V60.85a21.8 21.8 0 0 1 21.78-21.78h149.7a21.8 21.8 0 0 1 21.78 21.78v3.03H90.44a36.61 36.61 0 0 0-36.56 36.57v70.62zm204.37-107.2h-18.1v-3.02a36.61 36.61 0 0 0-36.57-36.57H47.81a36.62 36.62 0 0 0-36.56 36.57v88.44a36.61 36.61 0 0 0 36.57 36.57h6.06v3.01a36.62 36.62 0 0 0 36.57 36.57h25.71v42.86a7.4 7.4 0 0 0 12.08 5.74l59.47-48.6h64.47a36.61 36.61 0 0 0 36.57-36.57v-88.42a36.6 36.6 0 0 0-36.57-36.57z"/>
  <path fill="#8a0" d="M90.44 78.67a21.8 21.8 0 0 0-21.78 21.78v88.43c0 12 9.78 21.78 21.78 21.78h33.1c4.1 0 7.4 3.3 7.4 7.39v34.68l49.47-40.42a7.46 7.46 0 0 1 4.67-1.65h67.1c12 0 21.78-9.78 21.78-21.78v-88.43a21.8 21.8 0 0 0-21.78-21.78z"/>
  <path fill="#668000" d="M47.81 39.07a21.8 21.8 0 0 0-21.78 21.78v88.44a21.8 21.8 0 0 0 21.78 21.78h6.07v-70.62a36.61 36.61 0 0 1 36.56-36.57H219.3v-3.03a21.8 21.8 0 0 0-21.78-21.78z" opacity=".97"/>
</svg>
